<?xml version="1.0" encoding="UTF-8" standalone="no"?>
<svg width="64px" height="64px" viewBox="0 0 64 64" version="1.1" xmlns="http://www.w3.org/2000/svg" xmlns:xlink="http://www.w3.org/1999/xlink" xmlns:sketch="http://www.bohemiancoding.com/sketch/ns">
    <title>github</title>
    <description>Created with Sketch (http://www.bohemiancoding.com/sketch)</description>
    <defs></defs>
    <g id="Page-1" stroke="none" stroke-width="1" fill="none" fill-rule="evenodd" sketch:type="MSPage">
        <g id="github" sketch:type="MSArtboardGroup" transform="translate(-34.000000, -29.000000)" fill="#302F2F">
            <path d="M66.000265,29.5 C48.3293231,29.5 34,43.9593316 34,61.7972316 C34,76.0672307 43.1690499,88.1738122 55.8837342,92.4444896 C57.4830056,92.7434637 58.070147,91.7438525 58.070147,90.8907867 C58.070147,90.1206207 58.040472,87.5763987 58.0266943,84.8776087 C49.1241896,86.8313701 47.2456551,81.0668916 47.2456551,81.0668916 C45.7899897,77.3337259 43.6926019,76.3410675 43.6926019,76.3410675 C40.7892196,74.3364966 43.9114552,74.3776791 43.9114552,74.3776791 C47.1248354,74.604985 48.8168412,77.7059728 48.8168412,77.7059728 C51.6709418,82.6435925 56.3028938,81.2161113 58.1289671,80.390857 C58.4161788,78.3039211 59.2454895,76.8780444 60.1606458,76.0720443 C53.0529497,75.2553474 45.5812047,72.4859589 45.5812047,60.1103542 C45.5812047,56.5841706 46.8312647,53.703001 48.8783109,51.4411733 C48.5460567,50.6271506 47.4507307,47.3427136 49.1883088,42.8939353 C49.1883088,42.8939353 51.8754875,42.0258941 57.9906603,46.2045794 C60.5432416,45.4889668 63.2807617,45.1300909 66.000265,45.1177896 C68.7197682,45.1300909 71.459408,45.4889668 74.0167584,46.2045794 C80.1245125,42.0258941 82.8079818,42.8939353 82.8079818,42.8939353 C84.5497992,47.3427136 83.4539433,50.6271506 83.1216891,51.4411733 C85.1735045,53.703001 86.4150859,56.5841706 86.4150859,60.1103542 C86.4150859,72.515375 78.9290333,75.24679 71.8033202,76.0463721 C72.9511074,77.0486575 73.9738356,79.0141853 73.9738356,82.0274597 C73.9738356,86.3484118 73.9367419,89.82646 73.9367419,90.8907867 C73.9367419,91.7502705 74.5127551,92.7573695 76.1348127,92.4402109 C88.8426082,88.16472 98,76.0624172 98,61.7972316 C98,43.9593316 83.6727965,29.5 66.000265,29.5" sketch:type="MSShapeGroup"></path>
        </g>
    </g>
</svg>