<?xml version="1.0" encoding="UTF-8" standalone="no"?>
<svg width="64px" height="53px" viewBox="0 0 64 53" version="1.1" xmlns="http://www.w3.org/2000/svg" xmlns:xlink="http://www.w3.org/1999/xlink" xmlns:sketch="http://www.bohemiancoding.com/sketch/ns">
    <title>twitter-logo</title>
    <description>Created with Sketch (http://www.bohemiancoding.com/sketch)</description>
    <defs>
        <path id="path-1" d="M0,0 L64,0 L64,53 L5.32913551e-16,53"></path>
    </defs>
    <g id="Page-1" stroke="none" stroke-width="1" fill="none" fill-rule="evenodd" sketch:type="MSPage">
        <g id="twitter-logo" sketch:type="MSArtboardGroup" transform="translate(-13.000000, -8.000000)">
            <g id="twitter-copy" sketch:type="MSLayerGroup" transform="translate(13.000000, 8.000000)">
                <mask id="mask-2" sketch:name="Clip 2" fill="white">
                    <use xlink:href="#path-1"></use>
                </mask>
                <g id="Clip-2"></g>
                <path d="M20.1277296,53 C12.7126815,53 5.81077581,50.7850867 0,46.9888423 C1.02722119,47.1124099 2.0724679,47.1756249 3.13222868,47.1756249 C9.28385091,47.1756249 14.9455064,45.0365698 19.439248,41.4481002 C13.6935513,41.3400382 8.84444932,37.4717524 7.17369326,32.1559605 C7.97524416,32.3122091 8.79786386,32.3959393 9.64389334,32.3959393 C10.8415377,32.3959393 12.0014924,32.2325343 13.1033908,31.9267164 C7.09644098,30.6977198 2.57062804,25.2898487 2.57062804,18.8070826 C2.57062804,18.7507854 2.57062804,18.6947268 2.57156443,18.6389066 C4.34204616,19.6410446 6.36652401,20.2428998 8.51905337,20.3123172 C4.99588134,17.9130067 2.67761074,13.8176237 2.67761074,9.17572847 C2.67761074,6.72369902 3.32512528,4.42529413 4.4553495,2.44916688 C10.9314313,10.5440368 20.6064596,15.8708018 31.5191631,16.4287643 C31.2953656,15.449527 31.179019,14.4283052 31.179019,13.3796506 C31.179019,5.99064264 37.0581514,0 44.3097992,0 C48.086265,0 51.4987088,1.62498537 53.8939976,4.22539135 C56.8848312,3.62520592 59.6949413,2.51166632 62.2318592,0.978521726 C61.2514576,4.10277795 59.1696258,6.72489175 56.4585391,8.3808883 C59.1146128,8.05741793 61.6452101,7.3381973 64,6.27403703 C62.2395845,8.95721899 60.0133143,11.3138295 57.4480705,13.2002629 C57.4733531,13.7739695 57.4859944,14.3510159 57.4859944,14.9311633 C57.4859944,32.6120633 44.2791324,53 20.1277296,53" id="Fill-1" fill="#302F2F" sketch:type="MSShapeGroup" mask="url(#mask-2)"></path>
            </g>
        </g>
    </g>
</svg>