<?xml version="1.0" encoding="UTF-8" standalone="no"?>
<svg width="60px" height="58px" viewBox="0 0 60 58" version="1.1" xmlns="http://www.w3.org/2000/svg" xmlns:xlink="http://www.w3.org/1999/xlink" xmlns:sketch="http://www.bohemiancoding.com/sketch/ns">
    <title>work-logo</title>
    <description>Created with Sketch (http://www.bohemiancoding.com/sketch)</description>
    <defs></defs>
    <g id="Page-1" stroke="none" stroke-width="1" fill="none" fill-rule="evenodd" sketch:type="MSPage">
        <g id="work-logo" sketch:type="MSArtboardGroup" transform="translate(-32.000000, -24.000000)" fill="#302F2F">
            <g id="work-copy" sketch:type="MSLayerGroup" transform="translate(32.000000, 20.000000)">
                <path d="M46.2207951,4.88628123 C45.0750273,4.63917758 43.8859785,4.50909091 42.6666667,4.50909091 C33.3650283,4.50909091 25.8245614,12.0795483 25.8245614,21.4181818 C25.8245614,22.6817509 25.9626092,23.9129489 26.2243888,25.0974029 L26.2243888,25.0974029 L0.00910792887,51.2433081 C0.00910792887,51.2433081 -0.239285516,57.9369902 1.8582884,60.0265938 C3.97028954,62.1305698 10.4175024,61.9983518 10.4175024,61.9983518 L35.6962277,36.8156801 C37.8203387,37.786482 40.1805986,38.3272727 42.6666667,38.3272727 C51.968305,38.3272727 59.5087719,30.7568153 59.5087719,21.4181818 C59.5087719,20.1940205 59.3792006,19.0002425 59.1330759,17.8499176 L51.0877193,25.9272727 L50.4894841,25.3266582 C49.4592938,25.7141479 48.3350374,25.9272727 47.1578947,25.9272727 C42.1970209,25.9272727 38.1754386,22.142044 38.1754386,17.4727273 C38.1754386,16.1713787 38.4878145,14.9387015 39.0458405,13.8375001 L38.1754386,12.9636364 L46.2207951,4.88628123 L46.2207951,4.88628123 Z M10.1052632,55.2363636 C11.9655908,55.2363636 13.4736842,53.7222722 13.4736842,51.8545455 C13.4736842,49.9868188 11.9655908,48.4727273 10.1052632,48.4727273 C8.24493549,48.4727273 6.73684211,49.9868188 6.73684211,51.8545455 C6.73684211,53.7222722 8.24493549,55.2363636 10.1052632,55.2363636 Z" id="settings-2" sketch:type="MSShapeGroup"></path>
            </g>
        </g>
    </g>
</svg>